<svg xmlns="http://www.w3.org/2000/svg" width="24" height="24" viewBox="0 0 24 24" fill="none"><g clip-path="url(#clip0_19_52)"><path d="M12.0001 0C5.3832 0 0 5.38313 0 11.9999C0 18.6167 5.3832 23.9998 12.0001 23.9998C18.6169 23.9998 24 18.6167 24 11.9999C24 5.38313 18.6169 0 12.0001 0ZM12.0001 22.0326C6.46792 22.0326 1.9672 17.5321 1.9672 11.9999C1.9672 6.46784 6.46792 1.9672 12.0001 1.9672C17.5322 1.9672 22.0328 6.46784 22.0328 11.9999C22.0328 17.5321 17.5322 22.0326 12.0001 22.0326Z" fill="#00A22D"></path><path d="M17.1912 7.394L10.0663 14.519L6.80879 11.2614C6.42463 10.8774 5.8019 10.8774 5.41774 11.2614C5.03367 11.6456 5.03367 12.2683 5.41774 12.6525L9.37079 16.6055C9.56287 16.7975 9.81459 16.8936 10.0663 16.8936C10.318 16.8936 10.5698 16.7975 10.7618 16.6055L18.5822 8.78513C18.9663 8.40097 18.9663 7.77824 18.5822 7.39408C18.1981 7.00993 17.5753 7.00993 17.1912 7.394Z" fill="#00A22D"></path></g><defs><clipPath id="clip0_19_52"><rect width="24" height="24" fill="white"></rect></clipPath></defs></svg>